<mxfile host="65bd71144e">
    <diagram id="v0H2ugQBTasryR2xlGW9" name="Page-1">
        <mxGraphModel dx="413" dy="211" grid="0" gridSize="10" guides="1" tooltips="1" connect="1" arrows="1" fold="1" page="1" pageScale="1" pageWidth="827" pageHeight="1169" math="1" shadow="0">
            <root>
                <mxCell id="0"/>
                <mxCell id="1" parent="0"/>
                <mxCell id="2" value="" style="shape=parallelogram;perimeter=parallelogramPerimeter;whiteSpace=wrap;html=1;fixedSize=1;size=20;" parent="1" vertex="1">
                    <mxGeometry x="220" y="480" width="40" height="10" as="geometry"/>
                </mxCell>
                <mxCell id="3" value="" style="endArrow=none;html=1;rounded=0;exitX=0;exitY=1;exitDx=0;exitDy=0;entryX=1;entryY=0;entryDx=0;entryDy=0;" parent="1" source="2" target="2" edge="1">
                    <mxGeometry width="50" height="50" relative="1" as="geometry">
                        <mxPoint x="170" y="520" as="sourcePoint"/>
                        <mxPoint x="220" y="470" as="targetPoint"/>
                    </mxGeometry>
                </mxCell>
                <mxCell id="4" value="" style="shape=parallelogram;perimeter=parallelogramPerimeter;whiteSpace=wrap;html=1;fixedSize=1;size=20;" parent="1" vertex="1">
                    <mxGeometry x="240" y="480" width="40" height="10" as="geometry"/>
                </mxCell>
                <mxCell id="5" value="" style="endArrow=none;html=1;rounded=0;exitX=0;exitY=1;exitDx=0;exitDy=0;entryX=1;entryY=0;entryDx=0;entryDy=0;" parent="1" source="4" target="4" edge="1">
                    <mxGeometry width="50" height="50" relative="1" as="geometry">
                        <mxPoint x="190" y="520" as="sourcePoint"/>
                        <mxPoint x="240" y="470" as="targetPoint"/>
                    </mxGeometry>
                </mxCell>
                <mxCell id="6" value="" style="shape=parallelogram;perimeter=parallelogramPerimeter;whiteSpace=wrap;html=1;fixedSize=1;size=20;" parent="1" vertex="1">
                    <mxGeometry x="200" y="480" width="40" height="10" as="geometry"/>
                </mxCell>
                <mxCell id="7" value="" style="endArrow=none;html=1;rounded=0;exitX=0;exitY=1;exitDx=0;exitDy=0;entryX=1;entryY=0;entryDx=0;entryDy=0;" parent="1" source="6" target="6" edge="1">
                    <mxGeometry width="50" height="50" relative="1" as="geometry">
                        <mxPoint x="150" y="520" as="sourcePoint"/>
                        <mxPoint x="200" y="470" as="targetPoint"/>
                    </mxGeometry>
                </mxCell>
                <mxCell id="8" value="" style="shape=parallelogram;perimeter=parallelogramPerimeter;whiteSpace=wrap;html=1;fixedSize=1;size=20;" parent="1" vertex="1">
                    <mxGeometry x="180" y="480" width="40" height="10" as="geometry"/>
                </mxCell>
                <mxCell id="9" value="" style="endArrow=none;html=1;rounded=0;exitX=0;exitY=1;exitDx=0;exitDy=0;entryX=1;entryY=0;entryDx=0;entryDy=0;" parent="1" source="8" target="8" edge="1">
                    <mxGeometry width="50" height="50" relative="1" as="geometry">
                        <mxPoint x="130" y="520" as="sourcePoint"/>
                        <mxPoint x="180" y="470" as="targetPoint"/>
                    </mxGeometry>
                </mxCell>
                <mxCell id="10" value="" style="shape=parallelogram;perimeter=parallelogramPerimeter;whiteSpace=wrap;html=1;fixedSize=1;size=20;" parent="1" vertex="1">
                    <mxGeometry x="200" y="490" width="40" height="10" as="geometry"/>
                </mxCell>
                <mxCell id="11" value="" style="endArrow=none;html=1;rounded=0;exitX=0;exitY=1;exitDx=0;exitDy=0;entryX=1;entryY=0;entryDx=0;entryDy=0;" parent="1" source="10" target="10" edge="1">
                    <mxGeometry width="50" height="50" relative="1" as="geometry">
                        <mxPoint x="150" y="530" as="sourcePoint"/>
                        <mxPoint x="200" y="480" as="targetPoint"/>
                    </mxGeometry>
                </mxCell>
                <mxCell id="12" value="" style="shape=parallelogram;perimeter=parallelogramPerimeter;whiteSpace=wrap;html=1;fixedSize=1;size=20;" parent="1" vertex="1">
                    <mxGeometry x="220" y="490" width="40" height="10" as="geometry"/>
                </mxCell>
                <mxCell id="13" value="" style="endArrow=none;html=1;rounded=0;exitX=0;exitY=1;exitDx=0;exitDy=0;entryX=1;entryY=0;entryDx=0;entryDy=0;" parent="1" source="12" target="12" edge="1">
                    <mxGeometry width="50" height="50" relative="1" as="geometry">
                        <mxPoint x="170" y="530" as="sourcePoint"/>
                        <mxPoint x="220" y="480" as="targetPoint"/>
                    </mxGeometry>
                </mxCell>
                <mxCell id="14" value="" style="shape=parallelogram;perimeter=parallelogramPerimeter;whiteSpace=wrap;html=1;fixedSize=1;size=20;" parent="1" vertex="1">
                    <mxGeometry x="180" y="490" width="40" height="10" as="geometry"/>
                </mxCell>
                <mxCell id="15" value="" style="endArrow=none;html=1;rounded=0;exitX=0;exitY=1;exitDx=0;exitDy=0;entryX=1;entryY=0;entryDx=0;entryDy=0;" parent="1" source="14" target="14" edge="1">
                    <mxGeometry width="50" height="50" relative="1" as="geometry">
                        <mxPoint x="130" y="530" as="sourcePoint"/>
                        <mxPoint x="180" y="480" as="targetPoint"/>
                    </mxGeometry>
                </mxCell>
                <mxCell id="16" value="" style="shape=parallelogram;perimeter=parallelogramPerimeter;whiteSpace=wrap;html=1;fixedSize=1;size=20;" parent="1" vertex="1">
                    <mxGeometry x="160" y="490" width="40" height="10" as="geometry"/>
                </mxCell>
                <mxCell id="17" value="" style="endArrow=none;html=1;rounded=0;exitX=0;exitY=1;exitDx=0;exitDy=0;entryX=1;entryY=0;entryDx=0;entryDy=0;" parent="1" source="16" target="16" edge="1">
                    <mxGeometry width="50" height="50" relative="1" as="geometry">
                        <mxPoint x="110" y="530" as="sourcePoint"/>
                        <mxPoint x="160" y="480" as="targetPoint"/>
                    </mxGeometry>
                </mxCell>
                <mxCell id="18" value="" style="shape=parallelogram;perimeter=parallelogramPerimeter;whiteSpace=wrap;html=1;fixedSize=1;size=20;" parent="1" vertex="1">
                    <mxGeometry x="240" y="470" width="40" height="10" as="geometry"/>
                </mxCell>
                <mxCell id="19" value="" style="endArrow=none;html=1;rounded=0;exitX=0;exitY=1;exitDx=0;exitDy=0;entryX=1;entryY=0;entryDx=0;entryDy=0;" parent="1" source="18" target="18" edge="1">
                    <mxGeometry width="50" height="50" relative="1" as="geometry">
                        <mxPoint x="190" y="510" as="sourcePoint"/>
                        <mxPoint x="240" y="460" as="targetPoint"/>
                    </mxGeometry>
                </mxCell>
                <mxCell id="20" value="" style="shape=parallelogram;perimeter=parallelogramPerimeter;whiteSpace=wrap;html=1;fixedSize=1;size=20;" parent="1" vertex="1">
                    <mxGeometry x="260" y="470" width="40" height="10" as="geometry"/>
                </mxCell>
                <mxCell id="21" value="" style="endArrow=none;html=1;rounded=0;exitX=0;exitY=1;exitDx=0;exitDy=0;entryX=1;entryY=0;entryDx=0;entryDy=0;" parent="1" source="20" target="20" edge="1">
                    <mxGeometry width="50" height="50" relative="1" as="geometry">
                        <mxPoint x="210" y="510" as="sourcePoint"/>
                        <mxPoint x="260" y="460" as="targetPoint"/>
                    </mxGeometry>
                </mxCell>
                <mxCell id="22" value="" style="shape=parallelogram;perimeter=parallelogramPerimeter;whiteSpace=wrap;html=1;fixedSize=1;size=20;" parent="1" vertex="1">
                    <mxGeometry x="220" y="470" width="40" height="10" as="geometry"/>
                </mxCell>
                <mxCell id="23" value="" style="endArrow=none;html=1;rounded=0;exitX=0;exitY=1;exitDx=0;exitDy=0;entryX=1;entryY=0;entryDx=0;entryDy=0;" parent="1" source="22" target="22" edge="1">
                    <mxGeometry width="50" height="50" relative="1" as="geometry">
                        <mxPoint x="170" y="510" as="sourcePoint"/>
                        <mxPoint x="220" y="460" as="targetPoint"/>
                    </mxGeometry>
                </mxCell>
                <mxCell id="24" value="" style="shape=parallelogram;perimeter=parallelogramPerimeter;whiteSpace=wrap;html=1;fixedSize=1;size=20;" parent="1" vertex="1">
                    <mxGeometry x="200" y="470" width="40" height="10" as="geometry"/>
                </mxCell>
                <mxCell id="25" value="" style="endArrow=none;html=1;rounded=0;exitX=0;exitY=1;exitDx=0;exitDy=0;entryX=1;entryY=0;entryDx=0;entryDy=0;" parent="1" source="24" target="24" edge="1">
                    <mxGeometry width="50" height="50" relative="1" as="geometry">
                        <mxPoint x="150" y="510" as="sourcePoint"/>
                        <mxPoint x="200" y="460" as="targetPoint"/>
                    </mxGeometry>
                </mxCell>
                <mxCell id="26" value="" style="shape=parallelogram;perimeter=parallelogramPerimeter;whiteSpace=wrap;html=1;fixedSize=1;size=20;" parent="1" vertex="1">
                    <mxGeometry x="260" y="460" width="40" height="10" as="geometry"/>
                </mxCell>
                <mxCell id="27" value="" style="endArrow=none;html=1;rounded=0;exitX=0;exitY=1;exitDx=0;exitDy=0;entryX=1;entryY=0;entryDx=0;entryDy=0;" parent="1" source="26" target="26" edge="1">
                    <mxGeometry width="50" height="50" relative="1" as="geometry">
                        <mxPoint x="210" y="500" as="sourcePoint"/>
                        <mxPoint x="260" y="450" as="targetPoint"/>
                    </mxGeometry>
                </mxCell>
                <mxCell id="28" value="" style="shape=parallelogram;perimeter=parallelogramPerimeter;whiteSpace=wrap;html=1;fixedSize=1;size=20;" parent="1" vertex="1">
                    <mxGeometry x="280" y="460" width="40" height="10" as="geometry"/>
                </mxCell>
                <mxCell id="29" value="" style="endArrow=none;html=1;rounded=0;exitX=0;exitY=1;exitDx=0;exitDy=0;entryX=1;entryY=0;entryDx=0;entryDy=0;" parent="1" source="28" target="28" edge="1">
                    <mxGeometry width="50" height="50" relative="1" as="geometry">
                        <mxPoint x="230" y="500" as="sourcePoint"/>
                        <mxPoint x="280" y="450" as="targetPoint"/>
                    </mxGeometry>
                </mxCell>
                <mxCell id="30" value="" style="shape=parallelogram;perimeter=parallelogramPerimeter;whiteSpace=wrap;html=1;fixedSize=1;size=20;" parent="1" vertex="1">
                    <mxGeometry x="240" y="460" width="40" height="10" as="geometry"/>
                </mxCell>
                <mxCell id="31" value="" style="endArrow=none;html=1;rounded=0;exitX=0;exitY=1;exitDx=0;exitDy=0;entryX=1;entryY=0;entryDx=0;entryDy=0;" parent="1" source="30" target="30" edge="1">
                    <mxGeometry width="50" height="50" relative="1" as="geometry">
                        <mxPoint x="190" y="500" as="sourcePoint"/>
                        <mxPoint x="240" y="450" as="targetPoint"/>
                    </mxGeometry>
                </mxCell>
                <mxCell id="32" value="" style="shape=parallelogram;perimeter=parallelogramPerimeter;whiteSpace=wrap;html=1;fixedSize=1;size=20;" parent="1" vertex="1">
                    <mxGeometry x="220" y="460" width="40" height="10" as="geometry"/>
                </mxCell>
                <mxCell id="33" value="" style="endArrow=none;html=1;rounded=0;exitX=0;exitY=1;exitDx=0;exitDy=0;entryX=1;entryY=0;entryDx=0;entryDy=0;" parent="1" source="32" target="32" edge="1">
                    <mxGeometry width="50" height="50" relative="1" as="geometry">
                        <mxPoint x="170" y="500" as="sourcePoint"/>
                        <mxPoint x="220" y="450" as="targetPoint"/>
                    </mxGeometry>
                </mxCell>
                <mxCell id="34" value="" style="endArrow=classicThin;html=1;rounded=0;strokeColor=#FF0000;startArrow=none;startFill=0;endFill=1;" parent="1" edge="1">
                    <mxGeometry width="50" height="50" relative="1" as="geometry">
                        <mxPoint x="240" y="480" as="sourcePoint"/>
                        <mxPoint x="350" y="480" as="targetPoint"/>
                    </mxGeometry>
                </mxCell>
                <mxCell id="35" value="" style="endArrow=none;html=1;rounded=0;strokeColor=#0000FF;endFill=0;startArrow=classicThin;startFill=1;" parent="1" edge="1">
                    <mxGeometry width="50" height="50" relative="1" as="geometry">
                        <mxPoint x="140" y="530" as="sourcePoint"/>
                        <mxPoint x="240" y="480" as="targetPoint"/>
                    </mxGeometry>
                </mxCell>
                <mxCell id="36" value="" style="endArrow=classicThin;html=1;rounded=0;strokeColor=#00FF00;endFill=1;" parent="1" edge="1">
                    <mxGeometry width="50" height="50" relative="1" as="geometry">
                        <mxPoint x="240" y="480" as="sourcePoint"/>
                        <mxPoint x="240" y="370" as="targetPoint"/>
                    </mxGeometry>
                </mxCell>
                <mxCell id="37" value="\(x\)" style="text;html=1;align=center;verticalAlign=middle;whiteSpace=wrap;rounded=0;fontColor=#FF0000;fontSize=16;" parent="1" vertex="1">
                    <mxGeometry x="320" y="480" width="60" height="30" as="geometry"/>
                </mxCell>
                <mxCell id="38" value="\(y\)" style="text;html=1;align=center;verticalAlign=middle;whiteSpace=wrap;rounded=0;fontColor=#00FF00;fontSize=16;" parent="1" vertex="1">
                    <mxGeometry x="210" y="340" width="60" height="30" as="geometry"/>
                </mxCell>
                <mxCell id="39" value="&lt;font style=&quot;font-size: 16px;&quot; color=&quot;#0000ff&quot;&gt;\(z\)&lt;/font&gt;" style="text;html=1;align=center;verticalAlign=middle;whiteSpace=wrap;rounded=0;fontColor=#00FF00;movable=1;resizable=1;rotatable=1;deletable=1;editable=1;locked=0;connectable=1;fontSize=16;" parent="1" vertex="1">
                    <mxGeometry x="130" y="520" width="60" height="30" as="geometry"/>
                </mxCell>
                <mxCell id="168" value="" style="group" vertex="1" connectable="0" parent="1">
                    <mxGeometry x="626.9981699346405" y="343.00428571428574" width="98.13725490196089" height="103.71428571428572" as="geometry"/>
                </mxCell>
                <mxCell id="169" value="" style="endArrow=none;html=1;rounded=0;movable=1;resizable=1;rotatable=1;deletable=1;editable=1;connectable=1;" edge="1" parent="168">
                    <mxGeometry width="50" height="50" relative="1" as="geometry">
                        <mxPoint x="23.36601307189551" y="43.71428571428572" as="sourcePoint"/>
                        <mxPoint x="34.41183006535948" y="24.285714285714278" as="targetPoint"/>
                    </mxGeometry>
                </mxCell>
                <mxCell id="170" value="" style="endArrow=none;html=1;rounded=0;movable=1;resizable=1;rotatable=1;deletable=1;editable=1;connectable=1;" edge="1" parent="168">
                    <mxGeometry width="50" height="50" relative="1" as="geometry">
                        <mxPoint x="38.320261437908584" y="34.28571428571428" as="sourcePoint"/>
                        <mxPoint x="46.732026143790904" y="16.285714285714278" as="targetPoint"/>
                    </mxGeometry>
                </mxCell>
                <mxCell id="171" value="" style="endArrow=none;html=1;rounded=0;movable=1;resizable=1;rotatable=1;deletable=1;editable=1;connectable=1;" edge="1" parent="168">
                    <mxGeometry width="50" height="50" relative="1" as="geometry">
                        <mxPoint x="34.58169934640523" y="24" as="sourcePoint"/>
                        <mxPoint x="46.732026143790904" y="16.285714285714278" as="targetPoint"/>
                    </mxGeometry>
                </mxCell>
                <mxCell id="172" value="" style="endArrow=none;html=1;rounded=0;movable=1;resizable=1;rotatable=1;deletable=1;editable=1;connectable=1;" edge="1" parent="168">
                    <mxGeometry width="50" height="50" relative="1" as="geometry">
                        <mxPoint x="23.36601307189551" y="43.71428571428572" as="sourcePoint"/>
                        <mxPoint x="38.320261437908584" y="34.28571428571428" as="targetPoint"/>
                    </mxGeometry>
                </mxCell>
                <mxCell id="173" value="" style="endArrow=none;html=1;rounded=0;movable=1;resizable=1;rotatable=1;deletable=1;editable=1;connectable=1;" edge="1" parent="168">
                    <mxGeometry width="50" height="50" relative="1" as="geometry">
                        <mxPoint x="23.36601307189551" y="43.71428571428572" as="sourcePoint"/>
                        <mxPoint x="46.732026143790904" y="16.285714285714278" as="targetPoint"/>
                    </mxGeometry>
                </mxCell>
                <mxCell id="174" value="" style="endArrow=none;html=1;rounded=0;movable=1;resizable=1;rotatable=1;deletable=1;editable=1;connectable=1;" edge="1" parent="168">
                    <mxGeometry width="50" height="50" relative="1" as="geometry">
                        <mxPoint x="38.320261437908584" y="34.28571428571428" as="sourcePoint"/>
                        <mxPoint x="46.732026143790904" y="16.285714285714278" as="targetPoint"/>
                    </mxGeometry>
                </mxCell>
                <mxCell id="175" value="" style="endArrow=none;html=1;rounded=0;movable=1;resizable=1;rotatable=1;deletable=1;editable=1;connectable=1;" edge="1" parent="168">
                    <mxGeometry width="50" height="50" relative="1" as="geometry">
                        <mxPoint x="46.732026143790904" y="16.285714285714278" as="sourcePoint"/>
                        <mxPoint x="60.75163398692814" y="5.14285714285711" as="targetPoint"/>
                    </mxGeometry>
                </mxCell>
                <mxCell id="176" value="" style="endArrow=none;html=1;rounded=0;movable=1;resizable=1;rotatable=1;deletable=1;editable=1;connectable=1;" edge="1" parent="168">
                    <mxGeometry width="50" height="50" relative="1" as="geometry">
                        <mxPoint x="38.320261437908584" y="34.28571428571428" as="sourcePoint"/>
                        <mxPoint x="60.75163398692814" y="5.14285714285711" as="targetPoint"/>
                    </mxGeometry>
                </mxCell>
                <mxCell id="177" value="" style="endArrow=none;html=1;rounded=0;movable=1;resizable=1;rotatable=1;deletable=1;editable=1;connectable=1;" edge="1" parent="168">
                    <mxGeometry width="50" height="50" relative="1" as="geometry">
                        <mxPoint x="50.470588235294144" y="24" as="sourcePoint"/>
                        <mxPoint x="60.75163398692814" y="5.14285714285711" as="targetPoint"/>
                    </mxGeometry>
                </mxCell>
                <mxCell id="178" value="" style="endArrow=none;html=1;rounded=0;movable=1;resizable=1;rotatable=1;deletable=1;editable=1;connectable=1;" edge="1" parent="168">
                    <mxGeometry width="50" height="50" relative="1" as="geometry">
                        <mxPoint x="60.75163398692814" y="5.14285714285711" as="sourcePoint"/>
                        <mxPoint x="79.44444444444446" y="1.7142857142857224" as="targetPoint"/>
                    </mxGeometry>
                </mxCell>
                <mxCell id="179" value="" style="endArrow=none;html=1;rounded=0;movable=1;resizable=1;rotatable=1;deletable=1;editable=1;connectable=1;" edge="1" parent="168">
                    <mxGeometry width="50" height="50" relative="1" as="geometry">
                        <mxPoint x="50.470588235294144" y="24" as="sourcePoint"/>
                        <mxPoint x="79.44444444444446" y="1.7142857142857224" as="targetPoint"/>
                    </mxGeometry>
                </mxCell>
                <mxCell id="180" value="" style="endArrow=none;html=1;rounded=0;movable=1;resizable=1;rotatable=1;deletable=1;editable=1;connectable=1;" edge="1" parent="168">
                    <mxGeometry width="50" height="50" relative="1" as="geometry">
                        <mxPoint x="70.0980392156863" y="18" as="sourcePoint"/>
                        <mxPoint x="79.44444444444446" y="1.7142857142857224" as="targetPoint"/>
                    </mxGeometry>
                </mxCell>
                <mxCell id="181" value="" style="endArrow=none;html=1;rounded=0;movable=1;resizable=1;rotatable=1;deletable=1;editable=1;connectable=1;" edge="1" parent="168">
                    <mxGeometry width="50" height="50" relative="1" as="geometry">
                        <mxPoint x="85.05228758169937" y="11.14285714285711" as="sourcePoint"/>
                        <mxPoint x="98.13725490196089" as="targetPoint"/>
                    </mxGeometry>
                </mxCell>
                <mxCell id="182" value="" style="endArrow=none;html=1;rounded=0;movable=1;resizable=1;rotatable=1;deletable=1;editable=1;connectable=1;" edge="1" parent="168">
                    <mxGeometry width="50" height="50" relative="1" as="geometry">
                        <mxPoint x="79.44444444444446" y="1.7142857142857224" as="sourcePoint"/>
                        <mxPoint x="98.13725490196089" as="targetPoint"/>
                    </mxGeometry>
                </mxCell>
                <mxCell id="183" value="" style="endArrow=none;html=1;rounded=0;movable=1;resizable=1;rotatable=1;deletable=1;editable=1;connectable=1;" edge="1" parent="168">
                    <mxGeometry width="50" height="50" relative="1" as="geometry">
                        <mxPoint x="70.0980392156863" y="18" as="sourcePoint"/>
                        <mxPoint x="85.05228758169937" y="11.14285714285711" as="targetPoint"/>
                    </mxGeometry>
                </mxCell>
                <mxCell id="184" value="" style="endArrow=none;html=1;rounded=0;movable=1;resizable=1;rotatable=1;deletable=1;editable=1;connectable=1;" edge="1" parent="168">
                    <mxGeometry width="50" height="50" relative="1" as="geometry">
                        <mxPoint x="70.0980392156863" y="18" as="sourcePoint"/>
                        <mxPoint x="98.13725490196089" as="targetPoint"/>
                    </mxGeometry>
                </mxCell>
                <mxCell id="185" value="" style="endArrow=none;html=1;rounded=0;movable=1;resizable=1;rotatable=1;deletable=1;editable=1;connectable=1;" edge="1" parent="168">
                    <mxGeometry width="50" height="50" relative="1" as="geometry">
                        <mxPoint x="12.150326797385674" y="57.42857142857139" as="sourcePoint"/>
                        <mxPoint x="23.36601307189551" y="43.71428571428572" as="targetPoint"/>
                    </mxGeometry>
                </mxCell>
                <mxCell id="186" value="" style="endArrow=none;html=1;rounded=0;movable=1;resizable=1;rotatable=1;deletable=1;editable=1;connectable=1;" edge="1" parent="168">
                    <mxGeometry width="50" height="50" relative="1" as="geometry">
                        <mxPoint x="23.36601307189551" y="43.71428571428572" as="sourcePoint"/>
                        <mxPoint x="38.320261437908584" y="34.28571428571428" as="targetPoint"/>
                    </mxGeometry>
                </mxCell>
                <mxCell id="187" value="" style="endArrow=none;html=1;rounded=0;movable=1;resizable=1;rotatable=1;deletable=1;editable=1;connectable=1;" edge="1" parent="168">
                    <mxGeometry width="50" height="50" relative="1" as="geometry">
                        <mxPoint x="12.150326797385674" y="57.42857142857139" as="sourcePoint"/>
                        <mxPoint x="32.71241830065367" y="57.42857142857139" as="targetPoint"/>
                    </mxGeometry>
                </mxCell>
                <mxCell id="188" value="" style="endArrow=none;html=1;rounded=0;movable=1;resizable=1;rotatable=1;deletable=1;editable=1;connectable=1;" edge="1" parent="168">
                    <mxGeometry width="50" height="50" relative="1" as="geometry">
                        <mxPoint x="12.150326797385674" y="57.42857142857139" as="sourcePoint"/>
                        <mxPoint x="38.320261437908584" y="34.28571428571428" as="targetPoint"/>
                    </mxGeometry>
                </mxCell>
                <mxCell id="189" value="" style="endArrow=none;html=1;rounded=0;movable=1;resizable=1;rotatable=1;deletable=1;editable=1;connectable=1;" edge="1" parent="168">
                    <mxGeometry width="50" height="50" relative="1" as="geometry">
                        <mxPoint x="32.71241830065367" y="57.42857142857139" as="sourcePoint"/>
                        <mxPoint x="38.320261437908584" y="34.28571428571428" as="targetPoint"/>
                    </mxGeometry>
                </mxCell>
                <mxCell id="190" value="" style="endArrow=none;html=1;rounded=0;movable=1;resizable=1;rotatable=1;deletable=1;editable=1;connectable=1;" edge="1" parent="168">
                    <mxGeometry width="50" height="50" relative="1" as="geometry">
                        <mxPoint x="38.320261437908584" y="34.28571428571428" as="sourcePoint"/>
                        <mxPoint x="50.470588235294144" y="24" as="targetPoint"/>
                    </mxGeometry>
                </mxCell>
                <mxCell id="191" value="" style="endArrow=none;html=1;rounded=0;movable=1;resizable=1;rotatable=1;deletable=1;editable=1;connectable=1;" edge="1" parent="168">
                    <mxGeometry width="50" height="50" relative="1" as="geometry">
                        <mxPoint x="32.71241830065367" y="55.71428571428572" as="sourcePoint"/>
                        <mxPoint x="50.470588235294144" y="24" as="targetPoint"/>
                    </mxGeometry>
                </mxCell>
                <mxCell id="192" value="" style="endArrow=none;html=1;rounded=0;movable=1;resizable=1;rotatable=1;deletable=1;editable=1;connectable=1;" edge="1" parent="168">
                    <mxGeometry width="50" height="50" relative="1" as="geometry">
                        <mxPoint x="47.66666666666674" y="48" as="sourcePoint"/>
                        <mxPoint x="50.470588235294144" y="24" as="targetPoint"/>
                    </mxGeometry>
                </mxCell>
                <mxCell id="193" value="" style="endArrow=none;html=1;rounded=0;movable=1;resizable=1;rotatable=1;deletable=1;editable=1;connectable=1;" edge="1" parent="168">
                    <mxGeometry width="50" height="50" relative="1" as="geometry">
                        <mxPoint x="60.75163398692814" y="38.571428571428555" as="sourcePoint"/>
                        <mxPoint x="70.0980392156863" y="18" as="targetPoint"/>
                    </mxGeometry>
                </mxCell>
                <mxCell id="194" value="" style="endArrow=none;html=1;rounded=0;movable=1;resizable=1;rotatable=1;deletable=1;editable=1;connectable=1;" edge="1" parent="168">
                    <mxGeometry width="50" height="50" relative="1" as="geometry">
                        <mxPoint x="50.470588235294144" y="24" as="sourcePoint"/>
                        <mxPoint x="70.0980392156863" y="18" as="targetPoint"/>
                    </mxGeometry>
                </mxCell>
                <mxCell id="195" value="" style="endArrow=none;html=1;rounded=0;movable=1;resizable=1;rotatable=1;deletable=1;editable=1;connectable=1;" edge="1" parent="168">
                    <mxGeometry width="50" height="50" relative="1" as="geometry">
                        <mxPoint x="47.66666666666674" y="48" as="sourcePoint"/>
                        <mxPoint x="70.0980392156863" y="18" as="targetPoint"/>
                    </mxGeometry>
                </mxCell>
                <mxCell id="196" value="" style="endArrow=none;html=1;rounded=0;movable=1;resizable=1;rotatable=1;deletable=1;editable=1;connectable=1;" edge="1" parent="168">
                    <mxGeometry width="50" height="50" relative="1" as="geometry">
                        <mxPoint x="60.75163398692814" y="38.571428571428555" as="sourcePoint"/>
                        <mxPoint x="70.0980392156863" y="18" as="targetPoint"/>
                    </mxGeometry>
                </mxCell>
                <mxCell id="197" value="" style="endArrow=none;html=1;rounded=0;movable=1;resizable=1;rotatable=1;deletable=1;editable=1;connectable=1;" edge="1" parent="168">
                    <mxGeometry width="50" height="50" relative="1" as="geometry">
                        <mxPoint x="72.90196078431381" y="27.428571428571388" as="sourcePoint"/>
                        <mxPoint x="85.05228758169937" y="11.14285714285711" as="targetPoint"/>
                    </mxGeometry>
                </mxCell>
                <mxCell id="198" value="" style="endArrow=none;html=1;rounded=0;movable=1;resizable=1;rotatable=1;deletable=1;editable=1;connectable=1;" edge="1" parent="168">
                    <mxGeometry width="50" height="50" relative="1" as="geometry">
                        <mxPoint x="70.0980392156863" y="18" as="sourcePoint"/>
                        <mxPoint x="85.05228758169937" y="11.14285714285711" as="targetPoint"/>
                    </mxGeometry>
                </mxCell>
                <mxCell id="199" value="" style="endArrow=none;html=1;rounded=0;movable=1;resizable=1;rotatable=1;deletable=1;editable=1;connectable=1;" edge="1" parent="168">
                    <mxGeometry width="50" height="50" relative="1" as="geometry">
                        <mxPoint x="60.75163398692814" y="38.571428571428555" as="sourcePoint"/>
                        <mxPoint x="85.05228758169937" y="11.14285714285711" as="targetPoint"/>
                    </mxGeometry>
                </mxCell>
                <mxCell id="200" value="" style="endArrow=none;html=1;rounded=0;movable=1;resizable=1;rotatable=1;deletable=1;editable=1;connectable=1;" edge="1" parent="168">
                    <mxGeometry width="50" height="50" relative="1" as="geometry">
                        <mxPoint x="5.607843137254918" y="78" as="sourcePoint"/>
                        <mxPoint x="12.150326797385674" y="57.42857142857139" as="targetPoint"/>
                    </mxGeometry>
                </mxCell>
                <mxCell id="201" value="" style="endArrow=none;html=1;rounded=0;movable=1;resizable=1;rotatable=1;deletable=1;editable=1;connectable=1;" edge="1" parent="168">
                    <mxGeometry width="50" height="50" relative="1" as="geometry">
                        <mxPoint x="5.607843137254918" y="78" as="sourcePoint"/>
                        <mxPoint x="32.71241830065367" y="57.42857142857139" as="targetPoint"/>
                    </mxGeometry>
                </mxCell>
                <mxCell id="202" value="" style="endArrow=none;html=1;rounded=0;movable=1;resizable=1;rotatable=1;deletable=1;editable=1;connectable=1;" edge="1" parent="168">
                    <mxGeometry width="50" height="50" relative="1" as="geometry">
                        <mxPoint x="21.49673202614383" y="72.85714285714283" as="sourcePoint"/>
                        <mxPoint x="32.71241830065367" y="57.42857142857139" as="targetPoint"/>
                    </mxGeometry>
                </mxCell>
                <mxCell id="203" value="" style="endArrow=none;html=1;rounded=0;movable=1;resizable=1;rotatable=1;deletable=1;editable=1;connectable=1;" edge="1" parent="168">
                    <mxGeometry width="50" height="50" relative="1" as="geometry">
                        <mxPoint x="32.71241830065367" y="57.42857142857139" as="sourcePoint"/>
                        <mxPoint x="47.66666666666674" y="48" as="targetPoint"/>
                    </mxGeometry>
                </mxCell>
                <mxCell id="204" value="" style="endArrow=none;html=1;rounded=0;movable=1;resizable=1;rotatable=1;deletable=1;editable=1;connectable=1;" edge="1" parent="168">
                    <mxGeometry width="50" height="50" relative="1" as="geometry">
                        <mxPoint x="21.49673202614383" y="72.85714285714283" as="sourcePoint"/>
                        <mxPoint x="37.385620915032746" y="64.28571428571428" as="targetPoint"/>
                    </mxGeometry>
                </mxCell>
                <mxCell id="205" value="" style="endArrow=none;html=1;rounded=0;movable=1;resizable=1;rotatable=1;deletable=1;editable=1;connectable=1;" edge="1" parent="168">
                    <mxGeometry width="50" height="50" relative="1" as="geometry">
                        <mxPoint x="21.49673202614383" y="72.85714285714283" as="sourcePoint"/>
                        <mxPoint x="47.66666666666674" y="48" as="targetPoint"/>
                    </mxGeometry>
                </mxCell>
                <mxCell id="206" value="" style="endArrow=none;html=1;rounded=0;movable=1;resizable=1;rotatable=1;deletable=1;editable=1;connectable=1;" edge="1" parent="168">
                    <mxGeometry width="50" height="50" relative="1" as="geometry">
                        <mxPoint x="37.385620915032746" y="64.28571428571428" as="sourcePoint"/>
                        <mxPoint x="47.66666666666674" y="48" as="targetPoint"/>
                    </mxGeometry>
                </mxCell>
                <mxCell id="207" value="" style="endArrow=none;html=1;rounded=0;movable=1;resizable=1;rotatable=1;deletable=1;editable=1;connectable=1;" edge="1" parent="168">
                    <mxGeometry width="50" height="50" relative="1" as="geometry">
                        <mxPoint x="47.66666666666674" y="48" as="sourcePoint"/>
                        <mxPoint x="60.75163398692814" y="38.571428571428555" as="targetPoint"/>
                    </mxGeometry>
                </mxCell>
                <mxCell id="208" value="" style="endArrow=none;html=1;rounded=0;movable=1;resizable=1;rotatable=1;deletable=1;editable=1;connectable=1;" edge="1" parent="168">
                    <mxGeometry width="50" height="50" relative="1" as="geometry">
                        <mxPoint x="37.385620915032746" y="64.28571428571428" as="sourcePoint"/>
                        <mxPoint x="60.75163398692814" y="38.571428571428555" as="targetPoint"/>
                    </mxGeometry>
                </mxCell>
                <mxCell id="209" value="" style="endArrow=none;html=1;rounded=0;movable=1;resizable=1;rotatable=1;deletable=1;editable=1;connectable=1;" edge="1" parent="168">
                    <mxGeometry width="50" height="50" relative="1" as="geometry">
                        <mxPoint x="50.470588235294144" y="54" as="sourcePoint"/>
                        <mxPoint x="60.75163398692814" y="38.571428571428555" as="targetPoint"/>
                    </mxGeometry>
                </mxCell>
                <mxCell id="210" value="" style="endArrow=none;html=1;rounded=0;movable=1;resizable=1;rotatable=1;deletable=1;editable=1;connectable=1;" edge="1" parent="168">
                    <mxGeometry width="50" height="50" relative="1" as="geometry">
                        <mxPoint x="65.42483660130722" y="48" as="sourcePoint"/>
                        <mxPoint x="72.90196078431381" y="27.428571428571388" as="targetPoint"/>
                    </mxGeometry>
                </mxCell>
                <mxCell id="211" value="" style="endArrow=none;html=1;rounded=0;movable=1;resizable=1;rotatable=1;deletable=1;editable=1;connectable=1;" edge="1" parent="168">
                    <mxGeometry width="50" height="50" relative="1" as="geometry">
                        <mxPoint x="60.75163398692814" y="38.571428571428555" as="sourcePoint"/>
                        <mxPoint x="74.77124183006538" y="26.571428571428555" as="targetPoint"/>
                    </mxGeometry>
                </mxCell>
                <mxCell id="212" value="" style="endArrow=none;html=1;rounded=0;movable=1;resizable=1;rotatable=1;deletable=1;editable=1;connectable=1;" edge="1" parent="168">
                    <mxGeometry width="50" height="50" relative="1" as="geometry">
                        <mxPoint x="50.470588235294144" y="54" as="sourcePoint"/>
                        <mxPoint x="65.42483660130722" y="48" as="targetPoint"/>
                    </mxGeometry>
                </mxCell>
                <mxCell id="213" value="" style="endArrow=none;html=1;rounded=0;movable=1;resizable=1;rotatable=1;deletable=1;editable=1;connectable=1;" edge="1" parent="168">
                    <mxGeometry width="50" height="50" relative="1" as="geometry">
                        <mxPoint x="50.470588235294144" y="54" as="sourcePoint"/>
                        <mxPoint x="72.90196078431381" y="27.428571428571388" as="targetPoint"/>
                    </mxGeometry>
                </mxCell>
                <mxCell id="214" value="" style="endArrow=none;html=1;rounded=0;movable=1;resizable=1;rotatable=1;deletable=1;editable=1;connectable=1;" edge="1" parent="168">
                    <mxGeometry width="50" height="50" relative="1" as="geometry">
                        <mxPoint y="103.71428571428572" as="sourcePoint"/>
                        <mxPoint x="5.607843137254918" y="78" as="targetPoint"/>
                    </mxGeometry>
                </mxCell>
                <mxCell id="215" value="" style="endArrow=none;html=1;rounded=0;movable=1;resizable=1;rotatable=1;deletable=1;editable=1;connectable=1;" edge="1" parent="168">
                    <mxGeometry width="50" height="50" relative="1" as="geometry">
                        <mxPoint x="14.01960784313735" y="87.42857142857139" as="sourcePoint"/>
                        <mxPoint x="21.49673202614383" y="72.85714285714283" as="targetPoint"/>
                    </mxGeometry>
                </mxCell>
                <mxCell id="216" value="" style="endArrow=none;html=1;rounded=0;movable=1;resizable=1;rotatable=1;deletable=1;editable=1;connectable=1;" edge="1" parent="168">
                    <mxGeometry width="50" height="50" relative="1" as="geometry">
                        <mxPoint x="5.607843137254918" y="78" as="sourcePoint"/>
                        <mxPoint x="21.49673202614383" y="72.85714285714283" as="targetPoint"/>
                    </mxGeometry>
                </mxCell>
                <mxCell id="217" value="" style="endArrow=none;html=1;rounded=0;movable=1;resizable=1;rotatable=1;deletable=1;editable=1;connectable=1;" edge="1" parent="168">
                    <mxGeometry width="50" height="50" relative="1" as="geometry">
                        <mxPoint y="103.71428571428572" as="sourcePoint"/>
                        <mxPoint x="13.084967320261512" y="86.57142857142856" as="targetPoint"/>
                    </mxGeometry>
                </mxCell>
                <mxCell id="218" value="" style="endArrow=none;html=1;rounded=0;movable=1;resizable=1;rotatable=1;deletable=1;editable=1;connectable=1;" edge="1" parent="168">
                    <mxGeometry width="50" height="50" relative="1" as="geometry">
                        <mxPoint y="102.85714285714283" as="sourcePoint"/>
                        <mxPoint x="21.49673202614383" y="72.85714285714283" as="targetPoint"/>
                    </mxGeometry>
                </mxCell>
                <mxCell id="219" value="" style="endArrow=none;html=1;rounded=0;movable=1;resizable=1;rotatable=1;deletable=1;editable=1;connectable=1;" edge="1" parent="168">
                    <mxGeometry width="50" height="50" relative="1" as="geometry">
                        <mxPoint x="14.01960784313735" y="87.42857142857139" as="sourcePoint"/>
                        <mxPoint x="21.49673202614383" y="72.85714285714283" as="targetPoint"/>
                    </mxGeometry>
                </mxCell>
                <mxCell id="220" value="" style="endArrow=none;html=1;rounded=0;movable=1;resizable=1;rotatable=1;deletable=1;editable=1;connectable=1;" edge="1" parent="168">
                    <mxGeometry width="50" height="50" relative="1" as="geometry">
                        <mxPoint x="21.49673202614383" y="72.85714285714283" as="sourcePoint"/>
                        <mxPoint x="37.385620915032746" y="64.28571428571428" as="targetPoint"/>
                    </mxGeometry>
                </mxCell>
                <mxCell id="221" value="" style="endArrow=none;html=1;rounded=0;movable=1;resizable=1;rotatable=1;deletable=1;editable=1;connectable=1;" edge="1" parent="168">
                    <mxGeometry width="50" height="50" relative="1" as="geometry">
                        <mxPoint x="13.084967320261512" y="86.57142857142856" as="sourcePoint"/>
                        <mxPoint x="28.973856209150426" y="80.57142857142856" as="targetPoint"/>
                    </mxGeometry>
                </mxCell>
                <mxCell id="222" value="" style="endArrow=none;html=1;rounded=0;movable=1;resizable=1;rotatable=1;deletable=1;editable=1;connectable=1;" edge="1" parent="168">
                    <mxGeometry width="50" height="50" relative="1" as="geometry">
                        <mxPoint x="13.084967320261512" y="86.57142857142856" as="sourcePoint"/>
                        <mxPoint x="37.385620915032746" y="64.28571428571428" as="targetPoint"/>
                    </mxGeometry>
                </mxCell>
                <mxCell id="223" value="" style="endArrow=none;html=1;rounded=0;movable=1;resizable=1;rotatable=1;deletable=1;editable=1;connectable=1;" edge="1" parent="168">
                    <mxGeometry width="50" height="50" relative="1" as="geometry">
                        <mxPoint x="29.90849673202615" y="81.42857142857139" as="sourcePoint"/>
                        <mxPoint x="37.385620915032746" y="64.28571428571428" as="targetPoint"/>
                    </mxGeometry>
                </mxCell>
                <mxCell id="224" value="" style="endArrow=none;html=1;rounded=0;movable=1;resizable=1;rotatable=1;deletable=1;editable=1;connectable=1;" edge="1" parent="168">
                    <mxGeometry width="50" height="50" relative="1" as="geometry">
                        <mxPoint x="37.385620915032746" y="64.28571428571428" as="sourcePoint"/>
                        <mxPoint x="50.470588235294144" y="54" as="targetPoint"/>
                    </mxGeometry>
                </mxCell>
                <mxCell id="225" value="" style="endArrow=none;html=1;rounded=0;movable=1;resizable=1;rotatable=1;deletable=1;editable=1;connectable=1;" edge="1" parent="168">
                    <mxGeometry width="50" height="50" relative="1" as="geometry">
                        <mxPoint x="29.90849673202615" y="81.42857142857139" as="sourcePoint"/>
                        <mxPoint x="45.797385620915065" y="72" as="targetPoint"/>
                    </mxGeometry>
                </mxCell>
                <mxCell id="226" value="" style="endArrow=none;html=1;rounded=0;movable=1;resizable=1;rotatable=1;deletable=1;editable=1;connectable=1;" edge="1" parent="168">
                    <mxGeometry width="50" height="50" relative="1" as="geometry">
                        <mxPoint x="29.90849673202615" y="81.42857142857139" as="sourcePoint"/>
                        <mxPoint x="50.470588235294144" y="54" as="targetPoint"/>
                    </mxGeometry>
                </mxCell>
                <mxCell id="227" value="" style="endArrow=none;html=1;rounded=0;movable=1;resizable=1;rotatable=1;deletable=1;editable=1;connectable=1;" edge="1" parent="168">
                    <mxGeometry width="50" height="50" relative="1" as="geometry">
                        <mxPoint x="45.797385620915065" y="72" as="sourcePoint"/>
                        <mxPoint x="50.470588235294144" y="54" as="targetPoint"/>
                    </mxGeometry>
                </mxCell>
                <mxCell id="228" value="" style="endArrow=none;html=1;rounded=0;movable=1;resizable=1;rotatable=1;deletable=1;editable=1;connectable=1;" edge="1" parent="168">
                    <mxGeometry width="50" height="50" relative="1" as="geometry">
                        <mxPoint x="65.42483660130722" y="72" as="sourcePoint"/>
                        <mxPoint x="65.42483660130722" y="48" as="targetPoint"/>
                    </mxGeometry>
                </mxCell>
                <mxCell id="229" value="" style="endArrow=none;html=1;rounded=0;movable=1;resizable=1;rotatable=1;deletable=1;editable=1;connectable=1;" edge="1" parent="168">
                    <mxGeometry width="50" height="50" relative="1" as="geometry">
                        <mxPoint x="45.797385620915065" y="72" as="sourcePoint"/>
                        <mxPoint x="65.42483660130722" y="72" as="targetPoint"/>
                    </mxGeometry>
                </mxCell>
                <mxCell id="230" value="" style="endArrow=none;html=1;rounded=0;movable=1;resizable=1;rotatable=1;deletable=1;editable=1;connectable=1;" edge="1" parent="168">
                    <mxGeometry width="50" height="50" relative="1" as="geometry">
                        <mxPoint x="45.797385620915065" y="72" as="sourcePoint"/>
                        <mxPoint x="66.35947712418306" y="48" as="targetPoint"/>
                    </mxGeometry>
                </mxCell>
            </root>
        </mxGraphModel>
    </diagram>
</mxfile>